<?xml version="1.0" encoding="utf-8"?>
<!-- Generator: Adobe Illustrator 16.0.3, SVG Export Plug-In . SVG Version: 6.00 Build 0)  -->
<!DOCTYPE svg PUBLIC "-//W3C//DTD SVG 1.1//EN" "http://www.w3.org/Graphics/SVG/1.1/DTD/svg11.dtd">
<svg version="1.1" id="Capa_1" xmlns="http://www.w3.org/2000/svg" xmlns:xlink="http://www.w3.org/1999/xlink" x="0px" y="0px"
	 width="1135px" height="1135px" viewBox="0 0 1135 1135" enable-background="new 0 0 1135 1135" xml:space="preserve">
<g>
	<g>
		<path d="M567.616,66.288C254.488,66.288,0,291.109,0,567.384C0,676.55,40.792,783.398,115.192,870.082
			c-15.529,34.303-38.243,61.42-67.91,80.657c-15.297,9.966-22.714,28.045-18.774,45.892c3.94,17.614,18.079,30.594,36.157,33.144
			c17.847,2.55,36.157,3.708,54.003,3.708c57.48,0,109.861-12.284,155.984-36.62c88.306,47.05,189.128,71.851,292.731,71.851
			c313.128,0,567.616-224.822,567.616-501.097C1135,291.341,880.743,66.288,567.616,66.288z M567.616,1011.696
			c-99.432,0-195.85-25.032-278.825-72.314c-4.404-2.549-9.271-3.708-14.138-3.708c-5.099,0-10.198,1.391-14.602,3.94
			c-43.573,26.19-95.955,38.706-152.971,36.62c29.899-26.886,52.613-60.957,67.91-101.98c3.708-9.967,1.391-21.323-5.794-29.204
			C95.491,765.551,56.785,669.597,56.785,567.384c0-244.985,229.225-444.312,510.832-444.312
			c281.605,0,510.831,199.326,510.831,444.312C1078.447,812.37,849.222,1011.696,567.616,1011.696z"/>
		<polygon points="84,994 274,970 582,1042 852,970 1020,796 1102,614 1060,360 862,162 506,90 198,210 60,408 36,624 116,790 
			146,866 76,978 		"/>
	</g>
</g>
</svg>
