<?xml version="1.0" encoding="utf-8"?>
<!-- Generator: Adobe Illustrator 16.0.3, SVG Export Plug-In . SVG Version: 6.00 Build 0)  -->
<!DOCTYPE svg PUBLIC "-//W3C//DTD SVG 1.1//EN" "http://www.w3.org/Graphics/SVG/1.1/DTD/svg11.dtd">
<svg version="1.1" id="Capa_1" xmlns="http://www.w3.org/2000/svg" xmlns:xlink="http://www.w3.org/1999/xlink" x="0px" y="0px"
	 width="1135px" height="1135px" viewBox="0 0 1135 1135" enable-background="new 0 0 1135 1135" xml:space="preserve">
<g>
	<g>
		<path d="M1086.324,945.678c-28.317-18.488-50.081-44.23-65.292-76.759C1094.748,782.331,1135,676.086,1135,567.5
			c0-134.796-59.675-261.167-167.793-355.945C860.26,117.712,718.209,65.994,567.5,65.994s-292.76,51.719-399.707,145.561
			C59.675,306.333,0,432.704,0,567.5s59.675,261.167,167.793,355.945c106.947,93.843,248.998,145.561,399.707,145.561
			c102.969,0,203.13-24.572,290.888-70.908c45.868,23.87,98.055,36.039,154.922,36.039c18.02,0,36.272-1.17,54.292-3.744
			c19.19-2.574,34.401-16.615,38.614-35.337C1110.662,975.866,1102.705,956.442,1086.324,945.678z M1013.543,970.718
			c-52.187,0-98.756-12.169-138.54-36.039c-9.829-5.851-21.998-6.085-31.827-0.469c-82.141,46.57-177.387,71.377-275.441,71.377
			c-278.017,0-504.315-196.578-504.315-438.321s226.298-438.32,504.315-438.32c278.016,0,504.314,196.577,504.314,438.32
			c0,100.629-38.38,195.407-110.692,273.805c-7.956,8.658-10.53,21.296-6.318,32.295c14.275,38.613,35.104,70.908,62.249,97.118
			C1015.649,970.718,1014.479,970.718,1013.543,970.718z"/>
		<polyline points="1051,996 990,868 1067,694 1089,511 1006,306 809,153 602,106 387,131 222,217 78,392 45,623 97,769 268,958 
			473,1026 671,1031 823,968 		"/>
	</g>
</g>
</svg>
